# xmcd CD database file
#
# Track frame offsets:
#	150
#	14418
#	29628
#	44659
#	63258
#	77090
#	99818
#	113326
#	128018
#	146201
#	160236
#	191047
#
# Disc length: 2699 seconds
#
# Revision: 0
# Processed by: cddbd v1.5.2PL0 Copyright (c) Steve Scherf et al.
# Submitted via: CDex 1.51
#
DISCID=9d0a890c
DTITLE=Hubert Ziegler Trio - Route 66
DYEAR=2008
DGENRE=Jazz
TTITLE0=Undecided (Ch. Shavers)
TTITLE1=The Continental (C. Magidson)
TTITLE2=Fly me to the Moon (B. Howard)
TTITLE3=Broadway (H. Woody)
TTITLE4=The Girl from Ipanema (A.C. Jobim)
TTITLE5=Satin Doll (D. ELlington)
TTITLE6=It ain't necessarely so (G. Gershwin)
TTITLE7=Route 66(B. Troup)
TTITLE8=Moonglow (W. Hudson)
TTITLE9=Perdido (D. Ellington)
TTITLE10=Night and Day (C. Porter)
TTITLE11=Nature Boy (E. Ahbez)
EXTD=YEAR: 2008
EXTT0=
EXTT1=
EXTT2=
EXTT3=
EXTT4=
EXTT5=
EXTT6=
EXTT7=
EXTT8=
EXTT9=
EXTT10=
EXTT11=
PLAYORDER=
